<?xml version="1.0" encoding="utf-8"?>
<!-- Generator: Adobe Illustrator 22.0.1, SVG Export Plug-In . SVG Version: 6.00 Build 0)  -->
<svg version="1.1" id="Layer_1" xmlns="http://www.w3.org/2000/svg" xmlns:xlink="http://www.w3.org/1999/xlink" x="0px" y="0px"
	 viewBox="0 0 35.3 48.5" style="enable-background:new 0 0 35.3 48.5;" xml:space="preserve">
<style type="text/css">
	.st0{fill:#3232F8;}
</style>
<g>
	<g id="Icon-Location" transform="translate(232.000000, 376.000000)">
		<path id="Fill-55" class="st0" d="M-214.4-328l-0.9-1.1c-0.6-0.8-15.9-18.7-15.9-29.4c0-9.3,7.6-16.8,16.8-16.8
			s16.8,7.6,16.8,16.8c0,10.7-15.3,28.7-15.9,29.4L-214.4-328L-214.4-328z M-214.4-373c-8,0-14.4,6.5-14.4,14.4
			c0,8.4,11.1,22.7,14.4,26.8c3.3-4.1,14.4-18.3,14.4-26.8C-200-366.5-206.4-373-214.4-373L-214.4-373z"/>
		<path id="Fill-56" class="st0" d="M-214.4-352.1c-3.5,0-6.4-2.9-6.4-6.4s2.9-6.4,6.4-6.4s6.4,2.9,6.4,6.4
			S-210.9-352.1-214.4-352.1L-214.4-352.1z M-214.4-362.5c-2.2,0-4,1.8-4,4s1.8,4,4,4s4-1.8,4-4S-212.2-362.5-214.4-362.5
			L-214.4-362.5z"/>
	</g>
</g>
</svg>
