<?xml version="1.0" ?><svg height="32px" style="enable-background:new 0 0 32 32;" version="1.1" viewBox="0 0 32 32" width="32px" xml:space="preserve" xmlns="http://www.w3.org/2000/svg" xmlns:xlink="http://www.w3.org/1999/xlink"><style type="text/css">
	.st0{fill:none;stroke:#0707C6;stroke-width:2;stroke-linecap:round;stroke-linejoin:round;stroke-miterlimit:10;}
	.st1{fill:#0707C6;}
</style><g id="Layer_2"/><g id="Layer_1"><g><path class="st0" d="M25.28516,12.28429c-0.47396-1.13753-0.79347-2.32782-1.08984-3.52397    C23.09118,4.30398,19.06859,1,14.27087,1h-0.00006C8.32226,1,3.5,5.82226,3.5,11.77081V15.125    c0,3.89386,2.51147,7.19409,6,8.38971V24v2v5h9v-5h4.46875C23.81444,26,24.5,25.31444,24.5,24.46875V24v-3l4-1L25.28516,12.28429z    "/><g><circle class="st0" cx="14" cy="12" r="2.33333"/><path class="st0" d="M19.60373,12c0-0.2519-0.0224-0.49808-0.05467-0.74119l1.21761-1.54638l-1.40093-2.42488l-1.9492,0.28064     c-0.39187-0.30215-0.82231-0.55596-1.28661-0.74691L15.40093,5h-2.80186l-0.729,1.82129     c-0.4643,0.19095-0.89474,0.44476-1.28661,0.74691l-1.9492-0.28064L7.23333,9.71244l1.21761,1.54638     C8.41868,11.50192,8.39627,11.7481,8.39627,12s0.0224,0.49808,0.05467,0.74119l-1.21761,1.54638l1.40093,2.42488l1.9492-0.28064     c0.39187,0.30215,0.82228,0.55596,1.28658,0.74688L12.59907,19h2.80186l0.72903-1.82132     c0.4643-0.19092,0.89471-0.44473,1.28658-0.74688l1.9492,0.28064l1.40093-2.42488l-1.21761-1.54638     C19.58132,12.49808,19.60373,12.2519,19.60373,12z"/></g></g></g></svg>