<?xml version="1.0" encoding="utf-8"?>
<!-- Generator: Adobe Illustrator 22.0.1, SVG Export Plug-In . SVG Version: 6.00 Build 0)  -->
<svg version="1.1" id="Layer_1" xmlns="http://www.w3.org/2000/svg" xmlns:xlink="http://www.w3.org/1999/xlink" x="0px" y="0px"
	 viewBox="0 0 48.5 45.9" style="enable-background:new 0 0 48.5 45.9;" xml:space="preserve">
<style type="text/css">
	.st0{fill:#0707C6;}
</style>
<g>
	<g id="Icon-Star" transform="translate(126.000000, 225.000000)">
		<path id="Fill-5" class="st0" d="M-87.5-179.2c-0.2,0-0.5-0.1-0.7-0.2l-13.4-9.7l-13.4,9.7c-0.4,0.3-1,0.3-1.4,0s-0.6-0.9-0.4-1.3
			l5.1-15.7l-13.4-9.7c-0.4-0.3-0.6-0.9-0.4-1.3c0.2-0.5,0.6-0.8,1.1-0.8h16.5l5.1-15.7c0.2-0.5,0.6-0.8,1.1-0.8s1,0.3,1.1,0.8
			l5.1,15.7H-79c0.5,0,1,0.3,1.1,0.8c0.2,0.5,0,1-0.4,1.3l-13.4,9.7l5.1,15.7c0.2,0.5,0,1-0.4,1.3C-87-179.3-87.3-179.2-87.5-179.2
			L-87.5-179.2z M-101.6-191.9c0.2,0,0.5,0.1,0.7,0.2l11.1,8l-4.2-13c-0.2-0.5,0-1,0.4-1.3l11.1-8h-13.7c-0.5,0-1-0.3-1.1-0.8
			l-4.2-13l-4.2,13c-0.2,0.5-0.6,0.8-1.1,0.8h-13.8l11.1,8c0.4,0.3,0.6,0.9,0.4,1.3l-4.2,13l11.1-8
			C-102.1-191.8-101.8-191.9-101.6-191.9L-101.6-191.9z"/>
	</g>
</g>
</svg>
