<?xml version="1.0" ?><svg height="32px" style="enable-background:new 0 0 32 32;" version="1.1" viewBox="0 0 32 32"
 width="32px" xml:space="preserve" xmlns="http://www.w3.org/2000/svg" xmlns:xlink="http://www.w3.org/1999/xlink">
	<style type="text/css">
		.st0 {
			fill: none;
			stroke: #0707C6;
			stroke-width: 2;
			stroke-linecap: round;
			stroke-linejoin: round;
			stroke-miterlimit: 10;
		}

		.st1 {
			fill: #0707C6;
		}
	</style>
	<g id="Layer_2" />
	<g id="Layer_1">
		<g>
			<g>
				<polyline class="st0" points="8,26 1,26 1,8 31,8 31,26 29,26    " />
				<rect class="st0" height="6" width="30" x="1" y="2" />
				<line class="st0" x1="5" x2="5" y1="5" y2="5" />
				<line class="st0" x1="9" x2="9" y1="5" y2="5" />
				<line class="st0" x1="13" x2="13" y1="5" y2="5" />
			</g>
			<g>
				<polygon class="st0" points="25.16408,19.76111 21.50835,22.44103 26.23889,27.17157 23.41047,30 18.67992,25.26945 16,28.92518      15.99996,19.76106    " />
				<path class="st0" d="M13,22.40108c-0.62-0.71002-1-1.63-1-2.64001c0-2.21002,1.78998-4,4-4c1.01001,0,1.92999,0.38,2.64001,1" />
				<path class="st0" d="M13,26.08107c-2.37-1.12-4-3.52002-4-6.32001c0-3.87,3.13-7,7-7c2.79999,0,5.20001,1.63,6.32001,4" />
			</g>
		</g>
	</g>
</svg>