<?xml version="1.0" encoding="utf-8"?>
<!-- Generator: Adobe Illustrator 22.0.1, SVG Export Plug-In . SVG Version: 6.00 Build 0)  -->
<svg version="1.1" id="Слой_1" xmlns="http://www.w3.org/2000/svg" xmlns:xlink="http://www.w3.org/1999/xlink" x="0px" y="0px"
	 viewBox="0 0 48 34.8" style="enable-background:new 0 0 48 34.8;" xml:space="preserve">
<style type="text/css">
	.st0{fill:#0707C6;}
</style>
<g id="Expanded">
	<g>
		<g>
			<path class="st0" d="M33,34.3H5c-1.7,0-3-1.3-3-3v-18c0-1.7,1.3-3,3-3h28c1.7,0,3,1.3,3,3v18C36,33,34.7,34.3,33,34.3z M5,12.3
				c-0.6,0-1,0.4-1,1v18c0,0.6,0.4,1,1,1h28c0.6,0,1-0.4,1-1v-18c0-0.6-0.4-1-1-1H5z"/>
		</g>
		<g>
			<path class="st0" d="M12,27.3c-2.2,0-4-1.8-4-4s1.8-4,4-4s4,1.8,4,4S14.2,27.3,12,27.3z M12,21.3c-1.1,0-2,0.9-2,2s0.9,2,2,2
				s2-0.9,2-2S13.1,21.3,12,21.3z"/>
		</g>
		<g>
			<path class="st0" d="M26,27.3c-2.2,0-4-1.8-4-4s1.8-4,4-4s4,1.8,4,4S28.2,27.3,26,27.3z M26,21.3c-1.1,0-2,0.9-2,2s0.9,2,2,2
				s2-0.9,2-2S27.1,21.3,26,21.3z"/>
		</g>
		<g>
			<path class="st0" d="M26,21.3H12c-0.6,0-1-0.4-1-1s0.4-1,1-1h14c0.6,0,1,0.4,1,1S26.6,21.3,26,21.3z"/>
		</g>
		<g>
			<path class="st0" d="M23,12.3c-0.6,0-1-0.4-1-1v-4c0-0.6-0.4-1-1-1H1c-0.6,0-1-0.4-1-1s0.4-1,1-1h20c1.7,0,3,1.3,3,3v4
				C24,11.9,23.6,12.3,23,12.3z"/>
		</g>
		<g>
			<path class="st0" d="M31,12.3c-0.6,0-1-0.4-1-1v-6c0-1.7,1.3-3,3-3h4c0.6,0,1,0.4,1,1s-0.4,1-1,1h-4c-0.6,0-1,0.4-1,1v6
				C32,11.9,31.6,12.3,31,12.3z"/>
		</g>
		<g>
			<path class="st0" d="M45,6.3h-6c-1.7,0-3-1.3-3-3s1.3-3,3-3h6c1.7,0,3,1.3,3,3S46.7,6.3,45,6.3z M39,2.3c-0.6,0-1,0.4-1,1
				s0.4,1,1,1h6c0.6,0,1-0.4,1-1s-0.4-1-1-1H39z"/>
		</g>
		<g>
			<path class="st0" d="M45.9,31.8c-0.3,0-0.5-0.1-0.8-0.2l-10.5-4.4c-0.5-0.2-0.8-0.8-0.5-1.3s0.8-0.8,1.3-0.5l10.5,4.4l0.1-0.1
				V16.9l-0.5-1l0.4,0.9l-10.5,4.4c-0.5,0.2-1.1,0-1.3-0.5s0-1.1,0.5-1.3L45.1,15c0.6-0.3,1.4-0.2,2,0.2s0.9,1,0.9,1.7v12.8
				c0,0.7-0.3,1.3-0.9,1.7C46.7,31.6,46.3,31.8,45.9,31.8z"/>
		</g>
	</g>
</g>
</svg>
