<?xml version="1.0" encoding="utf-8"?>
<!-- Generator: Adobe Illustrator 22.0.1, SVG Export Plug-In . SVG Version: 6.00 Build 0)  -->
<svg version="1.1" id="Слой_1" xmlns="http://www.w3.org/2000/svg" xmlns:xlink="http://www.w3.org/1999/xlink" x="0px" y="0px"
	 viewBox="0 0 595.3 226.9" style="enable-background:new 0 0 595.3 226.9;" xml:space="preserve">
<style type="text/css">
	.st0{fill:#0707C6;}
</style>
<g>
	<path class="st0" d="M597.9,10.9c0,72,0,144,0,216c-201.8,0-403.7,0-605.5,0c0-72,0-144,0-216c20.2,5.5,39.8,2.5,59.2-3.9
		c17-5.6,34.2-5.3,51,0.6c22.5,7.8,44.6,7.9,67.1,0.1c17.8-6.2,35.9-6.2,53.7,0c22.2,7.8,44.2,7.8,66.4,0.1
		c17.8-6.2,35.9-6.3,53.7-0.1c22.5,7.8,44.6,7.9,67.1,0c18.2-6.3,36.9-6.4,55.1,0c22.5,7.8,44.6,7.7,67.1,0
		c13-4.5,26.5-6.3,40.3-3.1C581.5,6.4,589.6,8.8,597.9,10.9z"/>
</g>
</svg>
